<?xml version="1.0" standalone="no"?>
<!DOCTYPE svg PUBLIC "-//W3C//DTD SVG 20010904//EN"
 "http://www.w3.org/TR/2001/REC-SVG-20010904/DTD/svg10.dtd">
<svg version="1.0" xmlns="http://www.w3.org/2000/svg"
 width="292.000000pt" height="300.000000pt" viewBox="0 0 292.000000 300.000000"
 preserveAspectRatio="xMidYMid meet">

<g transform="translate(0.000000,300.000000) scale(0.100000,-0.100000)"
fill="#000000" stroke="none">
<path d="M1616 2973 c-36 -173 -71 -693 -47 -693 20 0 50 270 58 518 6 189 3
240 -11 175z"/>
<path d="M1310 2975 c-1 -94 45 -488 71 -610 16 -75 20 -85 29 -85 16 0 -19
338 -56 541 -25 137 -43 201 -44 154z"/>
<path d="M1817 2823 c-48 -170 -71 -267 -95 -393 -32 -167 -33 -175 -23 -165
22 22 172 668 158 681 -2 2 -20 -53 -40 -123z"/>
<path d="M1000 2912 c0 -17 100 -331 133 -418 50 -130 108 -254 117 -249 4 3
-3 42 -16 87 -73 249 -234 649 -234 580z"/>
<path d="M2029 2823 c-101 -221 -239 -586 -226 -599 5 -5 104 224 153 351 53
140 113 315 109 315 -3 0 -19 -30 -36 -67z"/>
<path d="M760 2797 c0 -53 339 -625 362 -611 9 6 -99 220 -178 350 -55 92
-175 274 -180 274 -2 0 -4 -6 -4 -13z"/>
<path d="M2148 2633 c-123 -195 -248 -426 -248 -455 0 -17 59 75 158 247 82
144 176 325 168 325 -3 0 -38 -53 -78 -117z"/>
<path d="M2353 2606 c-160 -191 -363 -460 -363 -480 0 -16 26 12 138 152 127
159 297 391 290 397 -2 3 -32 -29 -65 -69z"/>
<path d="M540 2649 c0 -39 428 -539 462 -539 27 0 -177 257 -366 463 -78 84
-96 98 -96 76z"/>
<path d="M2454 2442 c-140 -128 -384 -378 -384 -393 0 -15 176 150 363 338
130 132 157 163 143 163 -2 0 -57 -49 -122 -108z"/>
<path d="M362 2467 c12 -48 536 -474 552 -449 9 15 -248 243 -423 376 -112 85
-135 98 -129 73z"/>
<path d="M2546 2295 c-179 -127 -295 -217 -361 -280 -36 -34 -42 -42 -20 -30
52 31 235 164 365 266 163 127 187 148 174 149 -6 0 -77 -47 -158 -105z"/>
<path d="M216 2273 c-13 -13 -4 -24 62 -66 206 -133 546 -315 556 -298 15 24
-598 384 -618 364z"/>
<path d="M2619 2101 c-183 -92 -359 -189 -404 -225 -52 -41 151 57 427 207
164 89 209 118 181 117 -5 -1 -96 -45 -204 -99z"/>
<path d="M95 2030 c-4 -6 -5 -13 -3 -15 19 -19 396 -159 550 -204 112 -33 128
-36 128 -23 0 13 -242 112 -455 187 -177 62 -211 70 -220 55z"/>
<path d="M2895 2005 c-5 -2 -84 -27 -175 -55 -191 -60 -488 -175 -478 -186 11
-10 579 189 654 230 26 14 25 20 -1 11z"/>
<path d="M25 1772 c-16 -17 2 -31 53 -41 310 -65 680 -112 646 -83 -18 17
-339 82 -519 106 -163 22 -175 23 -180 18z"/>
<path d="M3 1505 c-3 -9 -2 -19 1 -23 13 -13 327 -14 508 -2 336 22 240 40
-215 40 -250 0 -288 -2 -294 -15z"/>
<path d="M615 1358 c-275 -42 -571 -101 -589 -119 -46 -43 354 17 666 102 21
5 38 14 38 19 0 12 -32 11 -115 -2z"/>
<path d="M625 1129 c-137 -52 -434 -194 -472 -225 -16 -14 -20 -23 -14 -33 8
-12 28 -8 123 28 210 80 545 251 532 272 -9 16 -35 9 -169 -42z"/>
<path d="M2200 1140 c0 -30 562 -350 614 -350 16 0 30 30 19 41 -46 44 -394
229 -530 283 -104 40 -103 40 -103 26z"/>
<path d="M785 914 c-134 -96 -242 -185 -360 -296 -70 -66 -78 -77 -66 -92 7
-9 19 -16 25 -16 6 0 66 45 134 99 211 169 400 353 390 380 -1 6 -57 -28 -123
-75z"/>
<path d="M2109 983 c18 -35 307 -311 410 -392 100 -79 104 -81 123 -65 18 17
17 20 -64 102 -104 104 -252 228 -371 310 -95 65 -114 74 -98 45z"/>
<path d="M1960 863 c0 -14 115 -212 182 -312 78 -117 205 -281 218 -281 4 0
13 7 20 15 11 13 6 26 -25 78 -157 256 -395 559 -395 500z"/>
<path d="M1029 752 c-85 -116 -178 -263 -254 -401 -54 -98 -65 -125 -54 -132
8 -5 17 -9 21 -9 11 0 139 183 213 305 66 109 155 283 155 304 0 28 -30 4 -81
-67z"/>
<path d="M1760 759 c0 -26 74 -303 107 -399 45 -132 105 -273 118 -277 6 -1
16 1 22 5 28 18 -112 454 -203 635 -23 44 -44 62 -44 36z"/>
<path d="M1282 658 c-61 -165 -128 -409 -150 -551 -9 -56 -4 -67 28 -67 20 0
114 328 149 520 36 195 24 236 -27 98z"/>
<path d="M1535 573 c-8 -150 -4 -261 17 -460 11 -109 12 -113 35 -113 l23 0 0
203 c0 264 -27 517 -55 517 -10 0 -15 -36 -20 -147z"/>
</g>
</svg>
